<svg width="19" height="16" viewBox="0 0 19 16" fill="none" xmlns="http://www.w3.org/2000/svg">
<g clip-path="url(#clip0_4_9)">
<path d="M0 0.75C0 0.334375 0.352951 0 0.791667 0H2.29253C3.01823 0 3.66146 0.4 3.96163 1H17.5189C18.3865 1 19.0198 1.78125 18.7922 2.575L17.4398 7.33437C17.1594 8.31563 16.2193 9 15.1472 9H5.63073L5.80885 9.89062C5.88142 10.2437 6.20799 10.5 6.58733 10.5H16.0972C16.5359 10.5 16.8889 10.8344 16.8889 11.25C16.8889 11.6656 16.5359 12 16.0972 12H6.58733C5.44601 12 4.46632 11.2312 4.25521 10.1719L2.55313 1.70312C2.53003 1.58438 2.42118 1.5 2.29253 1.5H0.791667C0.352951 1.5 0 1.16562 0 0.75ZM4.22222 14.5C4.22222 14.303 4.26318 14.108 4.34275 13.926C4.42232 13.744 4.53894 13.5786 4.68597 13.4393C4.833 13.3001 5.00754 13.1896 5.19964 13.1142C5.39174 13.0388 5.59763 13 5.80556 13C6.01348 13 6.21937 13.0388 6.41147 13.1142C6.60357 13.1896 6.77812 13.3001 6.92514 13.4393C7.07217 13.5786 7.1888 13.744 7.26836 13.926C7.34794 14.108 7.38889 14.303 7.38889 14.5C7.38889 14.697 7.34794 14.892 7.26836 15.074C7.1888 15.256 7.07217 15.4214 6.92514 15.5607C6.77812 15.6999 6.60357 15.8104 6.41147 15.8858C6.21937 15.9612 6.01348 16 5.80556 16C5.59763 16 5.39174 15.9612 5.19964 15.8858C5.00754 15.8104 4.833 15.6999 4.68597 15.5607C4.53894 15.4214 4.42232 15.256 4.34275 15.074C4.26318 14.892 4.22222 14.697 4.22222 14.5ZM15.3056 13C15.7255 13 16.1282 13.158 16.4251 13.4393C16.7221 13.7206 16.8889 14.1022 16.8889 14.5C16.8889 14.8978 16.7221 15.2794 16.4251 15.5607C16.1282 15.842 15.7255 16 15.3056 16C14.8856 16 14.4829 15.842 14.186 15.5607C13.889 15.2794 13.7222 14.8978 13.7222 14.5C13.7222 14.1022 13.889 13.7206 14.186 13.4393C14.4829 13.158 14.8856 13 15.3056 13Z" fill="white"/>
</g>
<defs>
<clipPath id="clip0_4_9">
<rect width="19" height="16" fill="white"/>
</clipPath>
</defs>
</svg>
