<svg width="19" height="17" viewBox="0 0 19 17" fill="none" xmlns="http://www.w3.org/2000/svg">
<g clip-path="url(#clip0_8_77)">
<path d="M0 1.25C0 0.834375 0.352951 0.5 0.791667 0.5H2.29253C3.01823 0.5 3.66146 0.9 3.96163 1.5H17.5189C18.3865 1.5 19.0198 2.28125 18.7922 3.075L17.4398 7.83437C17.1594 8.81563 16.2193 9.5 15.1472 9.5H5.63073L5.80885 10.3906C5.88142 10.7437 6.20799 11 6.58733 11H16.0972C16.5359 11 16.8889 11.3344 16.8889 11.75C16.8889 12.1656 16.5359 12.5 16.0972 12.5H6.58733C5.44601 12.5 4.46632 11.7312 4.25521 10.6719L2.55313 2.20312C2.53003 2.08438 2.42118 2 2.29253 2H0.791667C0.352951 2 0 1.66562 0 1.25ZM4.22222 15C4.22222 14.803 4.26318 14.608 4.34275 14.426C4.42232 14.244 4.53894 14.0786 4.68597 13.9393C4.833 13.8001 5.00754 13.6896 5.19964 13.6142C5.39174 13.5388 5.59763 13.5 5.80556 13.5C6.01348 13.5 6.21937 13.5388 6.41147 13.6142C6.60357 13.6896 6.77812 13.8001 6.92514 13.9393C7.07217 14.0786 7.1888 14.244 7.26836 14.426C7.34794 14.608 7.38889 14.803 7.38889 15C7.38889 15.197 7.34794 15.392 7.26836 15.574C7.1888 15.756 7.07217 15.9214 6.92514 16.0607C6.77812 16.1999 6.60357 16.3104 6.41147 16.3858C6.21937 16.4612 6.01348 16.5 5.80556 16.5C5.59763 16.5 5.39174 16.4612 5.19964 16.3858C5.00754 16.3104 4.833 16.1999 4.68597 16.0607C4.53894 15.9214 4.42232 15.756 4.34275 15.574C4.26318 15.392 4.22222 15.197 4.22222 15ZM15.3056 13.5C15.7255 13.5 16.1282 13.658 16.4251 13.9393C16.7221 14.2206 16.8889 14.6022 16.8889 15C16.8889 15.3978 16.7221 15.7794 16.4251 16.0607C16.1282 16.342 15.7255 16.5 15.3056 16.5C14.8856 16.5 14.4829 16.342 14.186 16.0607C13.889 15.7794 13.7222 15.3978 13.7222 15C13.7222 14.6022 13.889 14.2206 14.186 13.9393C14.4829 13.658 14.8856 13.5 15.3056 13.5Z" fill="black"/>
</g>
<defs>
<clipPath id="clip0_8_77">
<rect width="19" height="16" fill="white" transform="translate(0 0.5)"/>
</clipPath>
</defs>
</svg>
