<svg width="128" height="128" viewBox="0 0 128 128" fill="none" xmlns="http://www.w3.org/2000/svg">
<path d="M29.8668 103.467C27.52 103.467 25.6 105.387 25.6 107.733C25.6 110.08 27.52 112 29.8668 112C32.2135 112 34.1335 110.08 34.1335 107.733C34.1335 105.386 32.2133 103.467 29.8668 103.467Z" fill="white"/>
<path d="M29.8667 94.9332C22.8267 94.9332 17.0667 100.693 17.0667 107.733C17.0667 114.773 22.8267 120.533 29.8667 120.533C36.9067 120.533 42.6667 114.773 42.6667 107.733C42.6667 100.693 36.9067 94.9332 29.8667 94.9332ZM29.8667 116.267C25.1735 116.267 21.3335 112.427 21.3335 107.733C21.3335 103.04 25.1735 99.2002 29.8667 99.2002C34.56 99.2002 38.4 103.04 38.4 107.733C38.4 112.427 34.56 116.267 29.8667 116.267Z" fill="white"/>
<path d="M113.067 103.467C110.72 103.467 108.8 105.387 108.8 107.733C108.8 110.08 110.72 112 113.067 112C115.414 112 117.334 110.08 117.334 107.733C117.334 105.386 115.413 103.467 113.067 103.467Z" fill="white"/>
<path d="M113.067 94.9332C106.027 94.9332 100.267 100.693 100.267 107.733C100.267 114.773 106.027 120.533 113.067 120.533C120.107 120.533 125.867 114.773 125.867 107.733C125.867 100.693 120.107 94.9332 113.067 94.9332ZM113.067 116.267C108.373 116.267 104.534 112.427 104.534 107.733C104.534 103.04 108.373 99.2002 113.067 99.2002C117.76 99.2002 121.6 103.04 121.6 107.733C121.6 112.427 117.76 116.267 113.067 116.267Z" fill="white"/>
<path d="M124.373 85.76C121.173 82.1332 116.267 80 110.933 80H110.507C108.587 73.6 104.106 68.48 98.1332 65.7067V53.5467L99.4133 54.1867C99.6265 54.4 99.84 54.4 100.267 54.4H104.533C105.813 54.4 106.666 53.5467 106.666 52.2667V39.4667C106.666 38.1867 105.813 37.3335 104.533 37.3335H100.267C99.8398 37.3335 99.6265 37.3335 99.4133 37.5467L95.1465 39.68C94.2932 40.1067 93.8665 40.7467 93.8665 41.6H74.6665C73.3865 41.6 72.5332 42.4532 72.5332 43.7332H61.8665V38.4C61.8665 34.8705 59.997 31.8095 57.187 30.1417C60.04 27.7892 61.8665 24.231 61.8665 20.2667C61.8665 13.2267 56.1065 7.46674 49.0665 7.46674C42.0265 7.46674 36.2665 13.2267 36.2665 20.2667C36.2665 24.6892 38.5403 28.6055 41.976 30.9072C39.7913 32.6612 38.4 35.3562 38.4 38.4002V70.4002C38.4 72.3797 38.9888 74.2115 40.0008 75.7335H34.1335V48C34.1335 46.72 33.2803 45.8667 32.0003 45.8667H21.3333H12.8H2.13325C0.85325 45.8667 0 46.72 0 48V77.8667C0 79.1467 0.85325 80 2.13325 80H3.287C2.55525 81.2572 2.13325 82.7147 2.13325 84.2667V86.8267C2.13325 88.7467 2.9865 90.24 4.48 91.52C6.4 92.5867 6.82675 94.9332 5.76 96.8532L3.2 101.333C2.34675 102.4 1.92 104.107 2.34675 105.6C2.56 107.093 3.62675 108.587 5.12 109.227C5.76 109.654 6.61325 109.867 7.46675 109.867H12.8C14.08 109.867 14.9333 109.013 14.9333 107.733C14.9333 99.4135 21.5465 92.8002 29.8665 92.8002C38.1865 92.8002 44.7998 99.4135 44.7998 107.733C44.7998 109.013 45.653 109.867 46.933 109.867H96C97.28 109.867 98.1332 109.013 98.1332 107.733C98.1332 99.4135 104.746 92.8002 113.066 92.8002C120.106 92.8002 122.027 94.0802 124.373 96.427C125.013 97.067 125.867 97.2802 126.72 96.8537C127.573 96.6405 128 95.787 128 94.9337C128 91.52 126.72 88.5332 124.373 85.76ZM98.1332 42.88L100.693 41.6H102.4V50.1332H100.693L98.1332 48.8532V43.7332V42.88ZM82.7235 97.0667L73.6 68.48C72.7467 65.0667 69.5467 62.9332 66.1332 62.9332H57.6V56.5332H72.5332C72.5332 57.8132 73.3865 58.6665 74.6665 58.6665H85.3333V97.0665H82.7235V97.0667ZM49.0667 11.7332C53.76 11.7332 57.6 15.5732 57.6 20.2665C57.6 24.9597 53.76 28.8 49.0667 28.8C44.3735 28.8 40.5335 24.96 40.5335 20.2667C40.5335 15.5735 44.3732 11.7332 49.0667 11.7332ZM42.6668 70.4V38.4C42.6668 35.4132 45.0135 33.0667 48 33.0667H52.2668C55.2535 33.0667 57.6 35.4135 57.6 38.4V45.8667C57.6 47.1467 58.4532 48 59.7332 48H74.6665C74.7462 48 74.8257 48.0032 74.905 48.0105C74.9092 48.0107 74.913 48.0117 74.9173 48.012C75.4703 48.0637 76.0025 48.2972 76.3733 48.8532C76.7228 49.2027 76.785 49.696 76.7965 50.2147C76.7903 50.4252 76.7627 50.6245 76.7117 50.8087C76.3762 51.5715 75.416 52.2667 74.4532 52.2667H55.4665C54.1865 52.2667 53.3332 51.4135 53.3332 50.1335V43.7335C53.3332 42.4535 52.48 41.6002 51.2 41.6002C49.92 41.6002 49.0667 42.4535 49.0667 43.7335V50.1335C49.0667 53.0062 50.8075 55.3417 53.3335 56.1895V65.0667C53.3335 66.3467 54.1868 67.2 55.4668 67.2H66.1335C67.8402 67.2 69.1203 68.2667 69.5468 69.76L78.08 97.0667H71.8932L66.1332 77.2267C65.7065 76.3735 64.8533 75.7335 64 75.7335H51.2H48C45.0133 75.7332 42.6668 73.3867 42.6668 70.4ZM58.24 93.2267C59.3068 90.24 59.7332 87.2535 59.7332 84.2667C59.7332 82.798 59.3287 81.3295 58.5197 80H62.5065L67.4613 97.0667H56.533L58.24 93.2267ZM19.2 50.1332V54.4H14.9333V50.1332H19.2ZM4.26675 50.1332H10.6667V56.5332C10.6667 57.8132 11.52 58.6665 12.8 58.6665H21.3333C22.6133 58.6665 23.4665 57.8132 23.4665 56.5332V50.1332H29.8665V75.7332H10.6665H4.2665L4.26675 50.1332ZM112.853 88.5332C103.04 88.5332 94.9333 96 93.8665 105.6H48.8532C47.7865 96 39.4665 88.5332 29.6532 88.5332C19.84 88.5332 11.7332 96 10.6667 105.6H7.46675C7.2535 105.6 7.2535 105.6 7.04 105.6C6.61325 105.387 6.4 104.96 6.4 104.747C6.4 104.533 6.4 104.107 6.61325 103.68L6.8265 103.467L9.6 98.7732C11.9468 94.9332 10.6667 90.0265 7.04 87.68C6.82675 87.4667 6.4 87.2532 6.4 86.8267V84.2667C6.4 81.92 8.32 80 10.6667 80H32H48H51.2C52.2668 80 53.3332 80.4267 54.1867 81.28C55.0402 82.1332 55.4668 83.2 55.4668 84.2667C55.4668 86.8267 55.2535 89.3867 54.4 91.7335L51.4132 98.3467C51.2 98.9867 51.4132 99.6267 51.6265 100.267C51.8397 100.907 52.6932 101.333 53.3332 101.333H70.4H81.0667H87.4668C88.7468 101.333 89.6 100.48 89.6 99.2002V56.5332C89.6 55.2532 88.7468 54.4 87.4668 54.4H79.499C80.33 53.5132 80.8937 52.4112 81.0667 51.2C81.181 50.2852 81.1095 49.3095 80.8232 48.3705C80.8107 48.3267 80.7975 48.2835 80.784 48.24C80.7825 48.2352 80.781 48.2302 80.7793 48.2255C80.5688 47.5547 80.2482 46.9435 79.8357 46.41C79.7522 46.298 79.6657 46.1877 79.5732 46.08C79.5105 46.007 79.446 45.9367 79.3815 45.8667H93.8668V50.1335V67.2C93.8668 68.0532 94.2935 68.9067 94.72 69.12L95.36 69.3332C100.907 71.68 104.96 76.5865 106.24 82.56C106.453 83.6267 107.307 84.2667 108.373 84.2667H110.507C114.56 84.2667 118.4 85.76 120.746 88.5335C121.173 88.9602 121.6 89.3867 121.813 89.8135C119.68 88.96 116.907 88.5332 112.853 88.5332Z" fill="white"/>
</svg>
