<svg width="128" height="128" viewBox="0 0 128 128" fill="none" xmlns="http://www.w3.org/2000/svg">
<g clip-path="url(#clip0_15_180)">
<path d="M74.6667 46.9332C69.6137 46.9332 64.9475 48.51 61.1285 51.2H36.2667C34.9867 51.2 34.1335 52.0532 34.1335 53.3332C34.1335 54.6132 34.9867 55.4665 36.2667 55.4665H56.529C54.498 57.9345 52.9637 60.8287 52.0747 63.9997H36.2667C34.9867 63.9997 34.1335 64.853 34.1335 66.133C34.1335 67.413 34.9867 68.2662 36.2667 68.2662H51.2965C51.234 68.9687 51.2002 69.68 51.2002 70.3995C51.2002 72.6205 51.5052 74.7667 52.075 76.7995H36.267C34.987 76.7995 34.1337 77.6527 34.1337 78.9327C34.1337 80.2127 34.987 81.066 36.267 81.066H53.738C57.6057 88.6797 65.5012 93.866 74.667 93.866C87.6802 93.866 98.1337 83.4127 98.1337 70.3992C98.1332 57.3867 87.68 46.9332 74.6667 46.9332ZM74.6667 89.6C64 89.6 55.4667 81.0667 55.4667 70.4C55.4667 69.1782 55.5837 67.9865 55.798 66.8302C55.8367 66.6962 55.8635 66.5545 55.8785 66.406C56.828 61.8545 59.3717 57.9167 62.9067 55.1882C63.076 55.0935 63.2332 54.9767 63.3732 54.839C66.5352 52.549 70.4315 51.2 74.6667 51.2C85.3335 51.2 93.8667 59.7332 93.8667 70.4C93.8667 81.0667 85.3332 89.6 74.6667 89.6Z" fill="white"/>
<path d="M86.4 59.9468C85.3332 59.3068 84.0532 59.52 83.4132 60.5868L72.1065 77.6535L65.4932 71.0403C64.64 70.187 63.36 70.187 62.5065 71.0403C61.6532 71.8935 61.6532 73.1735 62.5065 74.027L71.0397 82.5603C71.4665 82.987 71.893 83.2003 72.533 83.2003C73.3862 83.2003 74.0262 82.7735 74.2397 82.1335L87.0397 62.9335C87.68 61.8668 87.4667 60.5868 86.4 59.9468Z" fill="white"/>
<path d="M115.2 0H32C26.0268 0 21.3333 4.69325 21.3333 10.6667V98.1335H6.4C2.77325 98.1335 0 100.907 0 104.534V115.2C0 122.24 5.76 128 12.8 128H92.5867H93.8668C97.0668 128 100.054 126.72 102.4 124.587C105.173 122.24 106.667 118.827 106.667 115.2V29.8668H121.6C125.227 29.8668 128 27.0935 128 23.4667V12.8C128 5.76 122.24 0 115.2 0ZM12.8 123.733C8.10675 123.733 4.26675 119.893 4.26675 115.2V104.533C4.26675 103.466 5.12 102.4 6.4 102.4H23.4667H81.0667V114.773V115.2C81.0667 118.4 82.1335 121.387 84.2667 123.733H12.8ZM102.4 12.8V115.2C102.4 117.76 101.333 119.893 99.6267 121.6C98.0212 122.849 96.1172 123.647 94.1645 123.752C94.0677 123.741 93.9693 123.733 93.8668 123.733C92.42 123.733 91.055 123.368 89.858 122.726C87.1823 121.216 85.3335 118.227 85.3335 114.773V100.267C85.3335 98.9867 84.4802 98.1335 83.2002 98.1335H25.6V10.6667C25.6 7.04 28.3733 4.26675 32 4.26675H105.6C105.189 4.76875 104.81 5.3015 104.465 5.85775C103.265 7.702 102.525 9.86875 102.415 12.1943C102.405 12.3953 102.4 12.5973 102.4 12.8ZM123.733 23.4667C123.733 24.5335 122.88 25.6 121.6 25.6H106.667V12.8C106.667 8.10675 110.507 4.26675 115.2 4.26675C119.893 4.26675 123.733 8.10675 123.733 12.8V23.4667Z" fill="white"/>
<path d="M51.2 17.0667H76.8C78.08 17.0667 78.9332 16.2135 78.9332 14.9335C78.9332 13.6535 78.08 12.8 76.8 12.8H51.2C49.92 12.8 49.0667 13.6532 49.0667 14.9332C49.0667 16.2132 49.92 17.0667 51.2 17.0667Z" fill="white"/>
<path d="M36.2667 29.8667H91.7335C93.0135 29.8667 93.8667 29.0135 93.8667 27.7335C93.8667 26.4535 93.0135 25.6002 91.7335 25.6002H36.2667C34.9867 25.6002 34.1335 26.4535 34.1335 27.7335C34.1335 29.0135 34.9867 29.8667 36.2667 29.8667Z" fill="white"/>
<path d="M36.2667 42.6668H91.7335C93.0135 42.6668 93.8667 41.8135 93.8667 40.5335C93.8667 39.2535 93.0135 38.4003 91.7335 38.4003H36.2667C34.9867 38.4003 34.1335 39.2535 34.1335 40.5335C34.1335 41.8135 34.9867 42.6668 36.2667 42.6668Z" fill="white"/>
</g>
<defs>
<clipPath id="clip0_15_180">
<rect width="128" height="128" fill="white"/>
</clipPath>
</defs>
</svg>
