<svg width="128" height="128" viewBox="0 0 128 128" fill="none" xmlns="http://www.w3.org/2000/svg">
<g clip-path="url(#clip0_15_166)">
<path d="M121.6 106.24C108.867 99.488 99.101 95.702 90.407 94.2505L91.3067 93.0135C91.7335 92.5867 91.9467 91.9467 91.7335 91.3067L89.7342 83.31C90.4587 82.2857 91.1422 81.2268 91.7825 80.138C99.7325 77.4323 103.753 72.8585 104.428 66.1245C107.92 65.9425 110.933 62.8258 110.933 59.3068V43.3068C110.933 39.8038 108.146 36.6995 104.496 36.4917C104.026 24.1677 98.592 0 64 0C29.4072 0 23.9737 24.1688 23.504 36.4925C20.0407 36.697 17.0667 39.6047 17.0667 43.3065V59.3065C17.0667 62.9332 20.2667 66.1332 24.1067 66.1332H27.3067C28.4827 66.1332 29.613 65.7953 30.5975 65.2168C31.8072 71.638 34.477 77.9538 38.266 83.3098L36.2667 91.3065C36.2667 91.7333 36.2667 92.3733 36.6935 93.0133L37.5932 94.2503C28.8992 95.702 19.1327 99.4878 6.40025 106.24C2.34675 108.16 0 112.213 0 116.693V125.867C0 127.147 0.85325 128 2.13325 128H53.3332H54.1865H73.8132H74.6665H125.866C127.146 128 128 127.147 128 125.867V116.693C128 112.427 125.44 108.373 121.6 106.24ZM64.0117 101.36L69.12 113.067H58.8087L64.0117 101.36ZM57.2587 117.333H70.733L71.9817 123.733H55.9785L57.2587 117.333ZM86.4 87.4668L87.2532 91.3067L85.074 94.299C84.935 94.4128 84.8062 94.5505 84.6932 94.72L75.8195 107.007L73.004 110.873L67.2527 97.9325C74.2672 97.077 80.5137 93.502 85.522 88.3795C85.818 88.081 86.111 87.7778 86.4 87.4668ZM94.7302 74.196C95.9335 71.2682 96.8405 68.225 97.414 65.1575C98.2262 65.6495 99.151 65.9783 100.148 66.0898C99.7782 69.1053 98.4385 71.9522 94.7302 74.196ZM106.453 43.0933V59.0933C106.453 60.3733 105.386 61.6533 103.893 61.6533H100.693C99.4132 61.6533 98.1332 60.5865 98.1332 59.0933V57.6V43.0933C98.1332 41.8133 99.2 40.5332 100.693 40.5332H103.893C105.173 40.5332 106.453 41.6 106.453 43.0933ZM64 4.26675C77.1492 4.26675 99.2795 8.55925 100.231 36.5148C99.337 36.6065 98.4807 36.8782 97.7062 37.2957C95.1102 21.0505 80.9467 8.53325 64 8.53325C47.0555 8.53325 32.8935 21.047 30.2947 37.2887C29.5317 36.8767 28.6797 36.6045 27.7687 36.514C28.7207 8.55925 50.851 4.26675 64 4.26675ZM29.6532 59.0933C29.6532 60.3733 28.5865 61.6533 27.0932 61.6533H23.8932C22.6132 61.6533 21.3332 60.5865 21.3332 59.0933V43.0933C21.3332 41.8133 22.4 40.5332 23.8932 40.5332H27.0932C28.3732 40.5332 29.6532 41.6 29.6532 43.0933V59.0933ZM34.1332 42.6668C34.1332 26.24 47.5732 12.8 64 12.8C80.4267 12.8 93.8667 26.24 93.8667 42.6668V57.6C93.8667 64.658 92.0292 71.1197 89.0502 76.5717C83.9582 78.0487 76.633 78.9333 66.1335 78.9333C64.8535 78.9333 64.0002 79.7865 64.0002 81.0665C64.0002 82.3465 64.8535 83.1998 66.1335 83.1998C73.8197 83.1998 80.248 82.7277 85.5122 81.741C85.3815 81.8717 85.2507 82.0025 85.12 82.1332C84.0467 83.5642 82.914 84.869 81.7305 86.0455C76.7072 90.7253 70.716 93.56 64.9425 93.8408C64.652 93.716 64.3262 93.6533 64 93.6533C63.672 93.6533 63.3765 93.7175 63.1115 93.8435C59.5775 93.6815 55.9607 92.5612 52.5325 90.6452C49.0592 88.6497 45.792 85.773 42.88 82.1332C42.6667 81.92 42.4532 81.7065 42.24 81.4932L42.1155 81.4518C37.3245 75.1683 34.1332 66.902 34.1332 57.6V42.6668ZM60.747 97.9325L54.9957 110.873L52.1802 107.007L43.3065 94.72C43.2385 94.652 43.1635 94.5848 43.0855 94.5185L40.7465 91.3067L41.5997 87.4668C41.8885 87.7778 42.1815 88.0807 42.477 88.379C47.4855 93.5015 53.7325 97.0768 60.747 97.9325ZM4.26675 116.693C4.26675 113.92 5.76 111.36 8.32 110.08C21.9182 102.856 31.707 99.2302 40.427 98.1472L53.1575 115.652L51.5412 123.733H4.26675V116.693ZM123.733 123.733H76.4587L74.8425 115.652L87.711 97.9575C96.4002 99.2687 106.365 102.892 119.68 109.867C122.24 111.36 123.733 113.92 123.733 116.693L123.733 123.733Z" fill="white"/>
</g>
<defs>
<clipPath id="clip0_15_166">
<rect width="128" height="128" fill="white"/>
</clipPath>
</defs>
</svg>
